<?xml version="1.0" encoding="UTF-8"?>
<svg version="1.1" xmlns="http://www.w3.org/2000/svg" width="585" height="202">
<path d="M0 0 C193.05 0 386.1 0 585 0 C585 66.66 585 133.32 585 202 C391.95 202 198.9 202 0 202 C0 135.34 0 68.68 0 0 Z " fill="#FDFEFD" transform="translate(0,0)"/>
<path d="M0 0 C58.59447005 0 58.59447005 0 70 10 C77.37133562 17.80875554 79.51233912 25.27248515 79.21875 35.890625 C78.63115706 44.2428389 76.0163065 52.03734645 69.953125 58.01953125 C61.44053043 64.99105266 52.7748162 67.14433682 41.8515625 67.09765625 C40.64838379 67.09515869 39.44520508 67.09266113 38.20556641 67.09008789 C35.93818604 67.07643188 35.93818604 67.07643188 33.625 67.0625 C28.79875 67.041875 23.9725 67.02125 19 67 C19 80.2 19 93.4 19 107 C12.73 107 6.46 107 0 107 C0 71.69 0 36.38 0 0 Z " fill="#3CA905" transform="translate(59,51)"/>
<path d="M0 0 C8.21909167 6.05766964 12.3980887 14.78427981 14.2578125 24.6640625 C15.69886593 38.39989301 14.08102968 52.53700527 5.2578125 63.6640625 C-1.57124299 71.79867271 -9.78482879 75.86347458 -20.3046875 76.921875 C-29.6115569 77.31847455 -38.49132968 74.62587893 -45.7421875 68.6640625 C-55.22915469 59.80074057 -59.16737533 49.73855632 -59.98046875 36.90234375 C-60.22879407 23.76724136 -57.85815085 12.71945719 -48.7421875 2.6640625 C-34.01872755 -10.25552984 -16.26611545 -10.35116438 0 0 Z " fill="#3DA906" transform="translate(244.7421875,83.3359375)"/>
<path d="M0 0 C5.94 0 11.88 0 18 0 C18.33 19.47 18.66 38.94 19 59 C24.28 53.39 29.56 47.78 35 42 C37.64 39.36 40.28 36.72 43 34 C43.495 33.01 43.495 33.01 44 32 C51.26 32 58.52 32 66 32 C64.1385107 35.72297861 62.74413327 37.44451274 59.8125 40.25 C56.35930012 43.6263401 53.11569846 47.07511385 49.97265625 50.73828125 C47.38532015 53.70475174 44.72623658 56.60217747 42.0625 59.5 C41.56508301 60.04116455 41.06766602 60.5823291 40.55517578 61.13989258 C39.3708304 62.42725155 38.18551944 63.71372212 37 65 C38.49922599 69.69169545 41.26275151 73.03491972 44.375 76.75 C50.5103772 84.23246413 56.0691136 92.04322471 61.57324219 99.99560547 C63.59685219 102.83849357 65.73447638 105.59060378 67.88525391 108.33813477 C69 110 69 110 69 112 C51.70268124 114.68599455 51.70268124 114.68599455 45.98876953 110.54101562 C42.38073827 106.58241899 39.85437441 101.96071034 37.30859375 97.27539062 C35.29804384 93.77943444 32.83801337 90.69641809 30.3125 87.5625 C26.09230769 82.18461538 26.09230769 82.18461538 25 80 C23.05925139 80.27617533 23.05925139 80.27617533 21 81 C18.61051803 84.58422296 18.69766832 86.37232596 18.5859375 90.63671875 C18.54726563 91.93544922 18.50859375 93.23417969 18.46875 94.57226562 C18.43729483 95.94400573 18.40604749 97.31575061 18.375 98.6875 C18.33680803 100.07098785 18.29775558 101.45445223 18.2578125 102.83789062 C18.16339733 106.22503472 18.08060428 109.61249911 18 113 C12.06 113 6.12 113 0 113 C0 75.71 0 38.42 0 0 Z " fill="#3FAA08" transform="translate(448,46)"/>
<path d="M0 0 C5.14636301 3.8542974 7.32511341 8.63006866 8.9609375 14.75 C9.47208666 19.67331138 9.43006885 24.56538964 9.3515625 29.5078125 C9.34408465 30.90598738 9.33839904 32.30417287 9.33441162 33.70236206 C9.31927622 37.3488963 9.28010285 40.99477405 9.2355957 44.64105225 C9.19437843 48.37519454 9.17634467 52.10944488 9.15625 55.84375 C9.11359322 63.1461646 9.04334676 70.44790598 8.9609375 77.75 C3.0209375 77.75 -2.9190625 77.75 -9.0390625 77.75 C-9.05364502 75.98889893 -9.06822754 74.22779785 -9.08325195 72.41333008 C-9.13495928 66.58576536 -9.20026043 60.75843762 -9.27477741 54.93112659 C-9.31944914 51.39901334 -9.35871188 47.86701456 -9.38549805 44.3347168 C-9.4165533 40.27102678 -9.47134084 36.20795458 -9.52734375 32.14453125 C-9.53373367 30.8797847 -9.5401236 29.61503815 -9.54670715 28.31196594 C-9.56650131 27.13111923 -9.58629547 25.95027252 -9.60668945 24.73364258 C-9.62334404 23.17810417 -9.62334404 23.17810417 -9.64033508 21.59114075 C-10.10379296 18.28876176 -11.06803763 16.42201645 -13.0390625 13.75 C-17.30339232 10.90711345 -21.03445621 11.24251262 -26.0390625 11.75 C-30.83226273 13.52525934 -34.70550343 16.08288187 -37.0390625 20.75 C-37.15850726 22.5365453 -37.21628568 24.32736251 -37.24438477 26.11767578 C-37.26432999 27.23868683 -37.28427521 28.35969788 -37.30482483 29.51467896 C-37.32989357 31.33659256 -37.32989357 31.33659256 -37.35546875 33.1953125 C-37.37624985 34.43546112 -37.39703094 35.67560974 -37.41844177 36.95333862 C-37.47283955 40.25111823 -37.52306345 43.5489272 -37.57128906 46.84680176 C-37.62151484 50.21172653 -37.67719527 53.5765605 -37.73242188 56.94140625 C-37.83967811 63.54420082 -37.94093036 70.14706377 -38.0390625 76.75 C-43.6490625 76.75 -49.2590625 76.75 -55.0390625 76.75 C-55.0390625 50.35 -55.0390625 23.95 -55.0390625 -3.25 C-49.4290625 -3.25 -43.8190625 -3.25 -38.0390625 -3.25 C-38.0390625 -1.6 -38.0390625 0.05 -38.0390625 1.75 C-37.54277344 1.41226563 -37.04648437 1.07453125 -36.53515625 0.7265625 C-24.57103778 -7.12843749 -12.2438113 -7.5057847 0 0 Z " fill="#3EAA07" transform="translate(428.0390625,81.25)"/>
<path d="M0 0 C5.94 0 11.88 0 18 0 C18 30.03 18 60.06 18 91 C34.17 91 50.34 91 67 91 C67 95.95 67 100.9 67 106 C44.89 106 22.78 106 0 106 C0 71.02 0 36.04 0 0 Z " fill="#3AA901" transform="translate(269,52)"/>
<path d="M0 0 C1.32 0.66 2.64 1.32 4 2 C4 7.28 4 12.56 4 18 C-3.125 18.25 -3.125 18.25 -5.33251953 18.29785156 C-10.27936528 18.55277445 -13.18107228 19.91235631 -17 23 C-18.29966585 25.5993317 -18.16044162 27.54864203 -18.20532227 30.45947266 C-18.22526749 31.60050446 -18.24521271 32.74153625 -18.26576233 33.91714478 C-18.29083107 35.77186905 -18.29083107 35.77186905 -18.31640625 37.6640625 C-18.33718735 38.92640717 -18.35796844 40.18875183 -18.37937927 41.48934937 C-18.43377926 44.84632045 -18.48400236 48.20330189 -18.53222656 51.56036377 C-18.58245042 54.98561065 -18.63813186 58.41076829 -18.69335938 61.8359375 C-18.80061863 68.55722286 -18.9018701 75.27857541 -19 82 C-24.94 82 -30.88 82 -37 82 C-37 55.6 -37 29.2 -37 2 C-31.39 2 -25.78 2 -20 2 C-20 2.99 -20 3.98 -20 5 C-19.31035156 4.6390625 -18.62070313 4.278125 -17.91015625 3.90625 C-11.91970016 0.94800008 -6.74290529 -1.26846733 0 0 Z " fill="#40AA0A" transform="translate(182,76)"/>
<path d="M0 0 C6.5950119 3.17973788 9.90066158 7.97805755 12.36499023 14.76171875 C13.41605873 18.46652304 13.48963696 22.04395982 13.4375 25.875 C13.42920166 26.66293945 13.42090332 27.45087891 13.41235352 28.26269531 C13.20664363 35.3695692 12.20075063 41.47189987 7.28125 46.89453125 C2.04947177 51.62751706 -2.31102764 52.36522032 -9.27734375 52.2734375 C-13.89158259 51.81002757 -16.38964586 49.81727116 -19.3984375 46.421875 C-26.04010803 37.89903768 -25.98507862 27.33450766 -25 17 C-23.47629358 9.71905553 -20.16023686 5.11188224 -14 1 C-9.81634937 -1.09182531 -4.55592381 -0.42935408 0 0 Z " fill="#FAFDF7" transform="translate(228,92)"/>
<path d="M0 0 C5.94 0 11.88 0 18 0 C18 26.4 18 52.8 18 80 C12.06 80 6.12 80 0 80 C0 53.6 0 27.2 0 0 Z " fill="#40A909" transform="translate(342,78)"/>
<path d="M0 0 C6.1565625 -0.0928125 6.1565625 -0.0928125 12.4375 -0.1875 C13.71294678 -0.21481201 14.98839355 -0.24212402 16.30249023 -0.27026367 C31.24378079 -0.37860987 31.24378079 -0.37860987 36.61499023 4.45263672 C41.90542784 10.6019661 41.51511041 16.16841388 41 24 C39.32955155 29.28975342 36.78392815 31.30904041 32 34 C28.58248347 35.13917218 25.96512063 35.11338481 22.36328125 35.09765625 C20.60818237 35.09390991 20.60818237 35.09390991 18.81762695 35.09008789 C16.58758911 35.07643188 16.58758911 35.07643188 14.3125 35.0625 C9.589375 35.041875 4.86625 35.02125 0 35 C0 23.45 0 11.9 0 0 Z " fill="#FBFEF9" transform="translate(78,67)"/>
<path d="M0 0 C5.94 0 11.88 0 18 0 C18 30.03 18 60.06 18 91 C34.17 91 50.34 91 67 91 C67 95.95 67 100.9 67 106 C44.89 106 22.78 106 0 106 C0 71.02 0 36.04 0 0 Z M4 1 C1.84385583 2.75142832 1.84385583 2.75142832 1.75390434 4.83906746 C1.75574793 5.58940695 1.75759151 6.33974644 1.75949097 7.11282349 C1.75674164 7.97381653 1.75399231 8.83480957 1.75115967 9.72189331 C1.75835022 10.66847809 1.76554077 11.61506287 1.77294922 12.59033203 C1.77265717 13.58548828 1.77236511 14.58064453 1.77206421 15.60595703 C1.7734614 18.90666316 1.78904096 22.20714563 1.8046875 25.5078125 C1.80841624 27.791818 1.81126387 30.0758251 1.81326294 32.35983276 C1.8209103 38.3801513 1.84056826 44.40037379 1.8626709 50.4206543 C1.8866965 57.63927729 1.89590505 64.85793235 1.90757751 72.07658386 C1.926992 83.05112277 1.96530701 94.02545082 2 105 C23.12 105 44.24 105 66 105 C66 101.04 66 97.08 66 93 C63.60417654 91.80208827 62.13222462 91.8793256 59.45849609 91.88647461 C58.02751587 91.88665588 58.02751587 91.88665588 56.56762695 91.88684082 C55.56304443 91.89195679 54.55846191 91.89707275 53.5234375 91.90234375 C52.14055542 91.90385437 52.14055542 91.90385437 50.72973633 91.90539551 C47.27814494 91.91063678 43.82657125 91.924598 40.375 91.9375 C28.804375 91.9684375 28.804375 91.9684375 17 92 C17 61.97 17 31.94 17 1 C12.71 1 8.42 1 4 1 Z " fill="#50A323" transform="translate(269,52)"/>
<path d="M0 0 C48 0 48 0 53 1 C53 1.33 53 1.66 53 2 C36.17 2 19.34 2 2 2 C2 36.32 2 70.64 2 106 C7.28 106 12.56 106 18 106 C18 93.13 18 80.26 18 67 C18.33 67 18.66 67 19 67 C19 80.2 19 93.4 19 107 C12.73 107 6.46 107 0 107 C0 71.69 0 36.38 0 0 Z " fill="#6FB749" transform="translate(59,51)"/>
<path d="M0 0 C3.5386994 1.65139305 4.81070153 2.71605229 7 6 C7.54062247 10.78837042 7.69083521 12.89466366 5.125 17 C0.73703709 19.80829626 -2.92543077 19.89147838 -8 19 C-10.96247942 17.3381213 -11.680393 16.13449904 -12.58984375 12.90625 C-13.32077979 8.72947263 -13.42868768 6.70955202 -11.1875 3 C-7.48085684 -0.38893089 -4.9792069 -0.33757335 0 0 Z " fill="#3FA909" transform="translate(354,50)"/>
<path d="M0 0 C6.27 0 12.54 0 19 0 C19.66 0.66 20.32 1.32 21 2 C22.31747324 2.69748583 23.64914193 3.36959957 25 4 C21.25 7 21.25 7 19 7 C19 5.35 19 3.7 19 2 C13.39 2 7.78 2 2 2 C2 28.4 2 54.8 2 82 C1.34 82 0.68 82 0 82 C0 54.94 0 27.88 0 0 Z " fill="#CDEDB9" transform="translate(371,76)"/>
<path d="M0 0 C5.61 0 11.22 0 17 0 C17.33 1.98 17.66 3.96 18 6 C17.01 5.67 16.02 5.34 15 5 C14.67 4.01 14.34 3.02 14 2 C9.71 1.67 5.42 1.34 1 1 C1 26.74 1 52.48 1 79 C5.95 79 10.9 79 16 79 C15.99214478 76.47110107 15.99214478 76.47110107 15.98413086 73.89111328 C15.96802005 68.32712821 15.95652169 62.76314649 15.94818783 57.19914436 C15.94296435 53.82496974 15.93587639 50.45082029 15.92456055 47.07666016 C15.91247564 43.19953741 15.90676737 39.3224506 15.90234375 35.4453125 C15.89718246 34.23070343 15.89202118 33.01609436 15.88670349 31.76467896 C15.88662796 30.64366791 15.88655243 29.52265686 15.88647461 28.36767578 C15.884254 27.37728302 15.88203339 26.38689026 15.87974548 25.3664856 C16 23 16 23 17 21 C17.66 21.33 18.32 21.66 19 22 C18.67 22.66 18.34 23.32 18 24 C17.88055524 25.7865453 17.82277682 27.57736251 17.79467773 29.36767578 C17.77473251 30.48868683 17.75478729 31.60969788 17.73423767 32.76467896 C17.70916893 34.58659256 17.70916893 34.58659256 17.68359375 36.4453125 C17.66281265 37.68546112 17.64203156 38.92560974 17.62062073 40.20333862 C17.56622295 43.50111823 17.51599905 46.7989272 17.46777344 50.09680176 C17.41754766 53.46172653 17.36186723 56.8265605 17.30664062 60.19140625 C17.19938439 66.79420082 17.09813214 73.39706377 17 80 C11.39 80 5.78 80 0 80 C0 53.6 0 27.2 0 0 Z " fill="#49A11C" transform="translate(373,78)"/>
<path d="M0 0 C-0.51949219 0.23074219 -1.03898437 0.46148437 -1.57421875 0.69921875 C-5.1712356 2.38137266 -7.75305823 3.74703526 -10.5625 6.625 C-13.65985529 9.64293592 -15.82897437 10.10036702 -20 11 C-19.67 11.99 -19.34 12.98 -19 14 C-20.31037934 15.68477344 -21.64843325 17.34808509 -23 19 C-24.12248481 21.29356203 -25.04273018 23.62961759 -26 26 C-26.33 26.33 -26.66 26.66 -27 27 C-27.25431324 30.88906915 -27.18523597 34.79111068 -27.1875 38.6875 C-27.19974609 39.77740234 -27.21199219 40.86730469 -27.22460938 41.99023438 C-27.23464437 47.48606697 -26.93884552 51.80520294 -25 57 C-25.375 59.375 -25.375 59.375 -26 61 C-31.095845 48.37116673 -32.33132382 33.62412248 -27.31640625 20.74609375 C-22.60642078 10.92081249 -16.24750846 4.54618151 -6.4453125 -0.25 C-3.79130843 -1.06400764 -2.56633282 -0.95049364 0 0 Z " fill="#5FAE36" transform="translate(215,78)"/>
<path d="M0 0 C0.33 0.66 0.66 1.32 1 2 C0.01 3.485 0.01 3.485 -1 5 C-1.66 5 -2.32 5 -3 5 C-3.94603164 8.21592088 -4.15159693 11.15660904 -4.20532227 14.50292969 C-4.22526749 15.60376892 -4.24521271 16.70460815 -4.26576233 17.83880615 C-4.28247482 19.02121887 -4.29918732 20.20363159 -4.31640625 21.421875 C-4.33718735 22.63699768 -4.35796844 23.85212036 -4.37937927 25.10406494 C-4.44476828 28.98598573 -4.50371051 32.8679742 -4.5625 36.75 C-4.60569532 39.38151742 -4.64930994 42.01302799 -4.69335938 44.64453125 C-4.80043883 51.0962826 -4.90222514 57.54810129 -5 64 C-5.66 64 -6.32 64 -7 64 C-7.07606355 56.11635518 -7.12860577 48.232805 -7.16479492 40.34887695 C-7.17818702 37.66680446 -7.19906077 34.98494508 -7.22631836 32.30297852 C-7.26270611 28.44801749 -7.279728 24.59338267 -7.29296875 20.73828125 C-7.31619453 18.93959343 -7.31619453 18.93959343 -7.33988953 17.10456848 C-7.34011612 15.98378403 -7.34034271 14.86299957 -7.34057617 13.70825195 C-7.35056892 12.23265556 -7.35056892 12.23265556 -7.36076355 10.72724915 C-6.80267808 6.50831371 -5.05725697 3.87601291 -1.8125 1.1875 C-1.214375 0.795625 -0.61625 0.40375 0 0 Z " fill="#DAF1C9" transform="translate(397,94)"/>
<path d="M0 0 C6.6 0 13.2 0 20 0 C20.16558345 5.37509362 20.32800096 10.75008353 20.48217773 16.12548828 C20.53562295 17.95497166 20.59095425 19.78440093 20.64819336 21.61376953 C20.73003411 24.23979016 20.80514096 26.86592919 20.87890625 29.4921875 C20.90594131 30.31306854 20.93297638 31.13394958 20.96083069 31.97970581 C21.11387171 37.77225659 21.11387171 37.77225659 20 40 C19.76725791 42.87910588 19.58027243 45.74146495 19.4375 48.625 C19.39431641 49.42679688 19.35113281 50.22859375 19.30664062 51.0546875 C19.20048543 53.0362511 19.09973145 55.01810271 19 57 C20.485 57.495 20.485 57.495 22 58 C20.68 58.99 19.36 59.98 18 61 C18 41.2 18 21.4 18 1 C12.06 1 6.12 1 0 1 C0 0.67 0 0.34 0 0 Z " fill="#DAF5CC" transform="translate(448,45)"/>
<path d="M0 0 C0.66 0 1.32 0 2 0 C3.31857548 2.63715096 3.11991704 4.5983264 3.11352539 7.55126953 C3.11344986 8.71232208 3.11337433 9.87337463 3.11329651 11.0696106 C3.10813522 12.32796722 3.10297394 13.58632385 3.09765625 14.8828125 C3.0962413 16.16735321 3.09482635 17.45189392 3.09336853 18.77536011 C3.08954911 22.19156842 3.07972373 25.60773426 3.06866455 29.02392578 C3.05843807 32.50943426 3.05386826 35.9949496 3.04882812 39.48046875 C3.03810095 46.32033171 3.02050879 53.16015945 3 60 C7.95 60 12.9 60 18 60 C18 60.33 18 60.66 18 61 C12.72 61 7.44 61 2 61 C1.97494385 59.4008374 1.9498877 57.8016748 1.92407227 56.15405273 C1.82972545 50.20703458 1.72957169 44.2601258 1.62768555 38.31323242 C1.58443974 35.74196943 1.54275755 33.17067964 1.50268555 30.59936523 C1.44473175 26.89819267 1.38110993 23.19715372 1.31640625 19.49609375 C1.29969376 18.35103867 1.28298126 17.20598358 1.26576233 16.02622986 C1.16549703 10.5940579 0.94555908 5.35368147 0 0 Z " fill="#44A115" transform="translate(418,97)"/>
<path d="M0 0 C-0.51949219 0.23074219 -1.03898437 0.46148437 -1.57421875 0.69921875 C-5.1712356 2.38137266 -7.75305823 3.74703526 -10.5625 6.625 C-13.65985529 9.64293592 -15.82897437 10.10036702 -20 11 C-19.67 11.99 -19.34 12.98 -19 14 C-20.65 15.65 -22.3 17.3 -24 19 C-24 13.44090044 -21.81578292 10.902835 -18 7 C-6.05788591 -1.88003356 -6.05788591 -1.88003356 0 0 Z " fill="#54AB27" transform="translate(215,78)"/>
<path d="M0 0 C1.32 0.33 2.64 0.66 4 1 C3.34 3.64 2.68 6.28 2 9 C1.34 9 0.68 9 0 9 C0 8.01 0 7.02 0 6 C-0.99 6 -1.98 6 -3 6 C-3 14.91 -3 23.82 -3 33 C-3.33 33 -3.66 33 -4 33 C-4.11625936 28.43771459 -4.18727408 23.87581072 -4.25 19.3125 C-4.28351563 18.01892578 -4.31703125 16.72535156 -4.3515625 15.39257812 C-4.36445313 14.14541016 -4.37734375 12.89824219 -4.390625 11.61328125 C-4.41157227 10.46641846 -4.43251953 9.31955566 -4.45410156 8.13793945 C-3.90924837 4.37288669 -2.58178992 2.72695977 0 0 Z " fill="#DDF5CF" transform="translate(470,125)"/>
<path d="M0 0 C3 2 3 2 3.68359375 4.5078125 C4.08848066 8.97656428 4.10639513 13.39094337 4.0625 17.875 C4.05798828 18.75414063 4.05347656 19.63328125 4.04882812 20.5390625 C4.03712337 22.69273803 4.01919069 24.84637817 4 27 C3.01 27.33 2.02 27.66 1 28 C1.00523682 27.36497559 1.01047363 26.72995117 1.01586914 26.07568359 C1.03676256 23.17546595 1.04969934 20.2752642 1.0625 17.375 C1.07087891 16.37597656 1.07925781 15.37695312 1.08789062 14.34765625 C1.1041087 9.44979725 1.04318537 4.81343801 0 0 Z " fill="#E5FBD8" transform="translate(257,102)"/>
<path d="M0 0 C0.99 0.33 1.98 0.66 3 1 C-1.04463084 5.04463084 -7.09481807 5.14456261 -12.5625 5.25 C-17.06414091 5.17476366 -20.76861128 4.50449377 -25 3 C-21.58860997 1.90348177 -18.79344419 2.05784527 -15.25 2.4375 C-14.26515625 2.53933594 -13.2803125 2.64117187 -12.265625 2.74609375 C-11.14414063 2.87177734 -11.14414063 2.87177734 -10 3 C-10 2.34 -10 1.68 -10 1 C-6.7 1.33 -3.4 1.66 0 2 C0 1.34 0 0.68 0 0 Z " fill="#5BAC2F" transform="translate(234,155)"/>
<path d="M0 0 C8.58 0 17.16 0 26 0 C23 3 23 3 20.5480957 3.34057617 C19.60023193 3.32486572 18.65236816 3.30915527 17.67578125 3.29296875 C16.64775391 3.28330078 15.61972656 3.27363281 14.56054688 3.26367188 C12.95276367 3.2259668 12.95276367 3.2259668 11.3125 3.1875 C10.22904297 3.17396484 9.14558594 3.16042969 8.02929688 3.14648438 C5.35236595 3.11110643 2.67643162 3.06174189 0 3 C0 2.01 0 1.02 0 0 Z " fill="#61B53A" transform="translate(78,102)"/>
<path d="M0 0 C7.92 0 15.84 0 24 0 C23.67 1.65 23.34 3.3 23 5 C22.34 4.67 21.68 4.34 21 4 C21.33 3.34 21.66 2.68 22 2 C14.74 2 7.48 2 0 2 C0 1.34 0 0.68 0 0 Z " fill="#D8F2CC" transform="translate(492,76)"/>
<path d="M0 0 C0.99 0.33 1.98 0.66 3 1 C3 1.99 3 2.98 3 4 C3.99 4.33 4.98 4.66 6 5 C7.03789581 6.64333504 8.03567924 8.31243867 9 10 C11.61167309 13.39517502 15.11221064 14.45955516 19 16 C19 16.66 19 17.32 19 18 C11.5784977 16.33016198 6.40914388 11.15795545 2 5.1875 C0 2 0 2 0 0 Z " fill="#50A420" transform="translate(190,139)"/>
<path d="M0 0 C1.57043101 0.01330874 3.14079971 0.03717648 4.7109375 0.0703125 C5.51273438 0.07933594 6.31453125 0.08835937 7.140625 0.09765625 C9.12252273 0.12125027 11.10426731 0.15712185 13.0859375 0.1953125 C13.0859375 1.1853125 13.0859375 2.1753125 13.0859375 3.1953125 C13.7459375 3.5253125 14.4059375 3.8553125 15.0859375 4.1953125 C13.7659375 4.5253125 12.4459375 4.8553125 11.0859375 5.1953125 C11.0859375 4.2053125 11.0859375 3.2153125 11.0859375 2.1953125 C5.4759375 2.1953125 -0.1340625 2.1953125 -5.9140625 2.1953125 C-3.9140625 0.1953125 -3.9140625 0.1953125 0 0 Z " fill="#D8F2CB" transform="translate(150.9140625,75.8046875)"/>
<path d="M0 0 C0.99 0.33 1.98 0.66 3 1 C2.60167969 1.60585937 2.20335937 2.21171875 1.79296875 2.8359375 C-1.92839519 8.72130626 -4.35919118 14.23526188 -6 21 C-6.33 21 -6.66 21 -7 21 C-7.16966615 16.58868009 -7.00075325 13.87645943 -5 10 C-4.83275263 6.83304044 -4.83275263 6.83304044 -5 4 C-3.68 4.33 -2.36 4.66 -1 5 C-0.67 3.35 -0.34 1.7 0 0 Z " fill="#E9FCDE" transform="translate(192,87)"/>
<path d="M0 0 C0.66 0 1.32 0 2 0 C3.53266582 3.06533164 3.10276471 6.26754272 3.0625 9.625 C3.05798828 10.33140625 3.05347656 11.0378125 3.04882812 11.765625 C3.03703875 13.51045275 3.01910324 15.255237 3 17 C2.34 17 1.68 17 1 17 C0.67 18.32 0.34 19.64 0 21 C-1 18 -1 18 0 15 C0.07029121 12.42734182 0.09370832 9.88358569 0.0625 7.3125 C0.05573242 6.2596582 0.05573242 6.2596582 0.04882812 5.18554688 C0.03706927 3.45699462 0.01913454 1.72848635 0 0 Z " fill="#62B038" transform="translate(118,76)"/>
<path d="M0 0 C0 3.61656862 -1.02130767 5.0319615 -3 8 C-3.66 8.66 -4.32 9.32 -5 10 C-5 10.99 -5 11.98 -5 13 C-6.65 12.67 -8.3 12.34 -10 12 C-7.49653351 7.14032976 -3.91447559 3.72143296 0 0 Z " fill="#54AC27" transform="translate(483,88)"/>
<path d="M0 0 C16.8929385 -0.18451025 16.8929385 -0.18451025 24 1 C24.33 2.32 24.66 3.64 25 5 C24.45214844 4.7834375 23.90429688 4.566875 23.33984375 4.34375 C15.45121301 1.57310896 8.26676247 1.70239655 0 2 C0 1.34 0 0.68 0 0 Z " fill="#F2FEE3" transform="translate(401,75)"/>
<path d="M0 0 C1.32 0.33 2.64 0.66 4 1 C4 2.32 4 3.64 4 5 C9.94 5 15.88 5 22 5 C21.67 3.68 21.34 2.36 21 1 C22.5 2.375 22.5 2.375 24 4 C24 4.66 24 5.32 24 6 C17.07 6 10.14 6 3 6 C2.01 4.02 1.02 2.04 0 0 Z " fill="#51A528" transform="translate(493,152)"/>
<path d="M0 0 C-1.28965176 1.37562854 -2.62689293 2.70766393 -4 4 C-4.66 4 -5.32 4 -6 4 C-6 2.35 -6 0.7 -6 -1 C-11.61 -1 -17.22 -1 -23 -1 C-23 -1.33 -23 -1.66 -23 -2 C-20.75067773 -2.1954625 -18.50049858 -2.38108226 -16.25 -2.5625 C-14.99703125 -2.66691406 -13.7440625 -2.77132812 -12.453125 -2.87890625 C-7.6535852 -3.0472159 -4.39186029 -1.82994179 0 0 Z " fill="#D0F0C1" transform="translate(396,79)"/>
<path d="M0 0 C0.66 0.33 1.32 0.66 2 1 C1.5875 1.86625 1.175 2.7325 0.75 3.625 C-0.41942765 7.12444557 -0.41942765 7.12444557 1.875 10.375 C2.57625 11.24125 3.2775 12.1075 4 13 C1.03 12.505 1.03 12.505 -2 12 C-2.33 8.7 -2.66 5.4 -3 2 C-2.01 1.34 -1.02 0.68 0 0 Z " fill="#4EA91D" transform="translate(485,106)"/>
<path d="M0 0 C-0.33 2.31 -0.66 4.62 -1 7 C-3.875 7.125 -3.875 7.125 -7 7 C-7.66 6.34 -8.32 5.68 -9 5 C-4.5 0 -4.5 0 0 0 Z " fill="#43A80E" transform="translate(120,96)"/>
<path d="M0 0 C7.26 0 14.52 0 22 0 C20 4 20 4 18 5 C17.67 4.01 17.34 3.02 17 2 C11.39 2 5.78 2 0 2 C0 1.34 0 0.68 0 0 Z " fill="#4EA222" transform="translate(492,78)"/>
<path d="M0 0 C2.79192205 -0.05380578 5.5828141 -0.09357669 8.375 -0.125 C9.1690625 -0.14175781 9.963125 -0.15851563 10.78125 -0.17578125 C12.85492015 -0.19335473 14.92883241 -0.10335168 17 0 C17.66 0.66 18.32 1.32 19 2 C18.34 2.66 17.68 3.32 17 4 C16.01 3.34 15.02 2.68 14 2 C8.38784265 1.34315542 3.23545369 1.79559845 -2 4 C-2 3.34 -2 2.68 -2 2 C-1.34 2 -0.68 2 0 2 C0 1.34 0 0.68 0 0 Z " fill="#54A625" transform="translate(398,91)"/>
<path d="M0 0 C2.13093906 1.06546953 3.36587557 2.29159719 5 4 C3.71186658 4.83878455 2.41936744 5.67086783 1.125 6.5 C0.40570313 6.9640625 -0.31359375 7.428125 -1.0546875 7.90625 C-3 9 -3 9 -5 9 C-5 8.34 -5 7.68 -5 7 C-3.68 6.67 -2.36 6.34 -1 6 C-1.309375 5.071875 -1.309375 5.071875 -1.625 4.125 C-1.810625 3.073125 -1.810625 3.073125 -2 2 C-1.34 1.34 -0.68 0.68 0 0 Z " fill="#47A716" transform="translate(123,106)"/>
<path d="M0 0 C3.96 0 7.92 0 12 0 C12 0.66 12 1.32 12 2 C13.32 2 14.64 2 16 2 C16 3.65 16 5.3 16 7 C15.27296875 6.47599609 15.27296875 6.47599609 14.53125 5.94140625 C9.57427147 2.57638044 5.98222157 1.32047616 0 1 C0 0.67 0 0.34 0 0 Z " fill="#57A926" transform="translate(220,91)"/>
<path d="M0 0 C0 0.33 0 0.66 0 1 C-1.299375 1.103125 -2.59875 1.20625 -3.9375 1.3125 C-8.90160353 1.848308 -13.34248334 3.24930225 -18 5 C-18.66 4.34 -19.32 3.68 -20 3 C-13.21256822 0.18447274 -7.31110994 -0.3689719 0 0 Z " fill="#65B239" transform="translate(416,76)"/>
<path d="M0 0 C0.66 0 1.32 0 2 0 C4.45416273 3.6812441 4.59384154 6.72261963 4 11 C2.5 13.5 2.5 13.5 1 15 C0.01 14.67 -0.98 14.34 -2 14 C-1.34 14 -0.68 14 0 14 C0.89214652 11.32356043 1.13540211 9.74615622 1.125 7 C1.12757813 6.319375 1.13015625 5.63875 1.1328125 4.9375 C1.06631126 2.78125219 1.06631126 2.78125219 0 0 Z " fill="#DFF9D1" transform="translate(359,53)"/>
<path d="M0 0 C3.11332584 0.33357063 4.90424019 0.71371372 7.5 2.375 C4.0094945 3.53850183 1.16796817 3.375 -2.5 3.375 C-4.17557379 3.66020405 -5.84817245 3.97455696 -7.5 4.375 C-5.06534444 1.25864089 -4.01377743 0.43004758 0 0 Z " fill="#55A92B" transform="translate(350.5,49.625)"/>
<path d="M0 0 C0.66 0 1.32 0 2 0 C1.67 3.3 1.34 6.6 1 10 C2.32 9.67 3.64 9.34 5 9 C4.67 10.65 4.34 12.3 4 14 C2.68 13.67 1.36 13.34 0 13 C0 8.71 0 4.42 0 0 Z " fill="#F8FEF3" transform="translate(187,78)"/>
<path d="M0 0 C-0.66 1.32 -1.32 2.64 -2 4 C-2.66 4 -3.32 4 -4 4 C-4.66 5.32 -5.32 6.64 -6 8 C-6.99 8 -7.98 8 -9 8 C-7.47364599 4.11473526 -4.49771687 0 0 0 Z " fill="#E5FBD8" transform="translate(216,93)"/>
<path d="M0 0 C3 3 3 3 3.4375 6.9375 C3.33618214 10.17371169 3.12046898 10.84941377 1 13.5 C0.34 13.995 -0.32 14.49 -1 15 C-1.33 14.34 -1.66 13.68 -2 13 C-1.34 13 -0.68 13 0 13 C0 8.71 0 4.42 0 0 Z " fill="#59A72D" transform="translate(358,53)"/>
<path d="M0 0 C0 3.97378549 -1.34753657 5.12649795 -4 8 C-6.41800866 9.66238095 -7.34259826 10.10956696 -10.25 9.625 C-10.8275 9.41875 -11.405 9.2125 -12 9 C-10.948125 8.443125 -9.89625 7.88625 -8.8125 7.3125 C-5.26046527 5.2982364 -2.75086314 3.0009416 0 0 Z " fill="#D7F2CA" transform="translate(249,147)"/>
<path d="M0 0 C0.66 0 1.32 0 2 0 C2.33 0.99 2.66 1.98 3 3 C0.69 5.31 -1.62 7.62 -4 10 C-4.66 9.34 -5.32 8.68 -6 8 C-4.625 6.5 -4.625 6.5 -3 5 C-2.34 5 -1.68 5 -1 5 C-0.67 3.35 -0.34 1.7 0 0 Z " fill="#48A617" transform="translate(495,94)"/>
<path d="M0 0 C3.59478807 3.32850747 6.22364768 6.98971331 9 11 C8.01 11.495 8.01 11.495 7 12 C7 11.34 7 10.68 7 10 C6.01 9.67 5.02 9.34 4 9 C4 8.34 4 7.68 4 7 C3.01 6.67 2.02 6.34 1 6 C0.67 4.02 0.34 2.04 0 0 Z " fill="#5AA82B" transform="translate(505,141)"/>
<path d="M0 0 C0.33 0.99 0.66 1.98 1 3 C2.98 3 4.96 3 7 3 C5.75 5 5.75 5 4 7 C2.68 7 1.36 7 0 7 C0 4.69 0 2.38 0 0 Z " fill="#ECF9E2" transform="translate(467,95)"/>
<path d="M0 0 C0 0.33 0 0.66 0 1 C-2.64 1 -5.28 1 -8 1 C-8 1.66 -8 2.32 -8 3 C-9.98 3.66 -11.96 4.32 -14 5 C-14.66 4.34 -15.32 3.68 -16 3 C-10.4477112 0.1647887 -6.19887485 -0.37952295 0 0 Z " fill="#61B035" transform="translate(182,76)"/>
<path d="M0 0 C0.99 0.99 1.98 1.98 3 3 C-2.94 3 -8.88 3 -15 3 C-15 2.67 -15 2.34 -15 2 C-14.08476562 1.93941406 -13.16953125 1.87882812 -12.2265625 1.81640625 C-10.44378906 1.69072266 -10.44378906 1.69072266 -8.625 1.5625 C-7.44164062 1.48128906 -6.25828125 1.40007813 -5.0390625 1.31640625 C-2.08481099 1.18915064 -2.08481099 1.18915064 0 0 Z " fill="#F1FEE6" transform="translate(284,48)"/>
<path d="M0 0 C0.33 0.66 0.66 1.32 1 2 C-0.38081223 6.1424367 -2.59825558 7.32203099 -6 10 C-6.66 9.67 -7.32 9.34 -8 9 C-5.36 6.03 -2.72 3.06 0 0 Z " fill="#DAF6C5" transform="translate(505,88)"/>
<path d="M0 0 C1.21386936 3.64160808 0.6674695 4.33165469 -0.9375 7.6875 C-1.31777344 8.49574219 -1.69804687 9.30398437 -2.08984375 10.13671875 C-2.39019531 10.75160156 -2.69054687 11.36648437 -3 12 C-3.33 12 -3.66 12 -4 12 C-4.61528766 6.92387682 -2.61658349 4.17017994 0 0 Z " fill="#4FA420" transform="translate(256,131)"/>
<path d="M0 0 C0.66 0 1.32 0 2 0 C3.32229189 2.64458379 3.09677194 4.67761301 3.0625 7.625 C3.05347656 8.62789062 3.04445313 9.63078125 3.03515625 10.6640625 C3.02355469 11.43492188 3.01195312 12.20578125 3 13 C2.67 13 2.34 13 2 13 C1.34 8.71 0.68 4.42 0 0 Z " fill="#4FA821" transform="translate(418,97)"/>
<path d="M0 0 C0.66 0.99 1.32 1.98 2 3 C-0.39509338 5.89932357 -2.31245243 6.50168276 -6 7 C-4.02 4.69 -2.04 2.38 0 0 Z " fill="#E2F7D3" transform="translate(512,81)"/>
<path d="M0 0 C3.3 0 6.6 0 10 0 C10.33 1.98 10.66 3.96 11 6 C10.01 5.67 9.02 5.34 8 5 C7.67 4.01 7.34 3.02 7 2 C4.69 1.67 2.38 1.34 0 1 C0 0.67 0 0.34 0 0 Z " fill="#5BAB30" transform="translate(380,78)"/>
<path d="M0 0 C0 3.90838866 -1.50567876 5.11594107 -4 8 C-4.99 7.67 -5.98 7.34 -7 7 C-4.69 4.69 -2.38 2.38 0 0 Z " fill="#D4F2C1" transform="translate(496,98)"/>
<path d="M0 0 C0.33 0.66 0.66 1.32 1 2 C0.01 3.485 0.01 3.485 -1 5 C-1.66 5 -2.32 5 -3 5 C-3 5.66 -3 6.32 -3 7 C-3.99 7.33 -4.98 7.66 -6 8 C-4.73058503 4.08597051 -3.48832306 2.20927127 0 0 Z " fill="#D7F6C7" transform="translate(397,94)"/>
<path d="M0 0 C2.97 0 5.94 0 9 0 C9.33 1.32 9.66 2.64 10 4 C6.7 3.01 3.4 2.02 0 1 C0 0.67 0 0.34 0 0 Z " fill="#D9F5CA" transform="translate(416,76)"/>
<path d="M0 0 C1.06546953 3.1964086 1.07427838 5.65747276 1 9 C-0.32 7.68 -1.64 6.36 -3 5 C-1.125 1.125 -1.125 1.125 0 0 Z " fill="#DFFBD0" transform="translate(487,108)"/>
<path d="M0 0 C2.8290723 2.8290723 3.37611108 3.38144425 4 7 C3.34 7 2.68 7 2 7 C1.67 7.66 1.34 8.32 1 9 C0.67 6.03 0.34 3.06 0 0 Z " fill="#57AC24" transform="translate(251,91)"/>
<path d="M0 0 C3.93673644 1.31224548 6.22719294 2.91910327 9 6 C6.03 5.01 3.06 4.02 0 3 C0 2.01 0 1.02 0 0 Z " fill="#57A627" transform="translate(239,81)"/>
</svg>
